<svg id="visual" viewBox="0 0 900 600" width="900" height="600" xmlns="http://www.w3.org/2000/svg" xmlns:xlink="http://www.w3.org/1999/xlink" version="1.1"><rect x="0" y="0" width="900" height="600" fill="#38A261"></rect><path d="M0 464L25 468.3C50 472.7 100 481.3 150 495.5C200 509.7 250 529.3 300 536.5C350 543.7 400 538.3 450 521.8C500 505.3 550 477.7 600 445.2C650 412.7 700 375.3 750 367.7C800 360 850 382 875 393L900 404L900 601L875 601C850 601 800 601 750 601C700 601 650 601 600 601C550 601 500 601 450 601C400 601 350 601 300 601C250 601 200 601 150 601C100 601 50 601 25 601L0 601Z" fill="#FFFFFF" stroke-linecap="round" stroke-linejoin="miter"></path></svg>