<svg id="visual" viewBox="0 0 900 450" width="900" height="450" xmlns="http://www.w3.org/2000/svg" xmlns:xlink="http://www.w3.org/1999/xlink" version="1.1"><rect x="0" y="0" width="900" height="450" fill="#38A261"></rect><path d="M0 415L25 420C50 425 100 435 150 405.7C200 376.3 250 307.7 300 288.8C350 270 400 301 450 331.3C500 361.7 550 391.3 600 395.7C650 400 700 379 750 347.2C800 315.3 850 272.7 875 251.3L900 230L900 451L875 451C850 451 800 451 750 451C700 451 650 451 600 451C550 451 500 451 450 451C400 451 350 451 300 451C250 451 200 451 150 451C100 451 50 451 25 451L0 451Z" fill="#FFFFFF" stroke-linecap="round" stroke-linejoin="miter"></path></svg>