<svg id="visual" viewBox="0 0 1500 600" width="1500" height="600" xmlns="http://www.w3.org/2000/svg" xmlns:xlink="http://www.w3.org/1999/xlink" version="1.1"><rect x="0" y="0" width="1500" height="600" fill="#38A261"></rect><path d="M0 554L41.7 560.7C83.3 567.3 166.7 580.7 250 541.5C333.3 502.3 416.7 410.7 500 385.5C583.3 360.3 666.7 401.7 750 442.2C833.3 482.7 916.7 522.3 1000 528.2C1083.3 534 1166.7 506 1250 463.5C1333.3 421 1416.7 364 1458.3 335.5L1500 307L1500 601L1458.3 601C1416.7 601 1333.3 601 1250 601C1166.7 601 1083.3 601 1000 601C916.7 601 833.3 601 750 601C666.7 601 583.3 601 500 601C416.7 601 333.3 601 250 601C166.7 601 83.3 601 41.7 601L0 601Z" fill="#FFFFFF" stroke-linecap="round" stroke-linejoin="miter"></path></svg>